# xmcd
#
# Track frame offsets: 
#        150
#        13384
#        23115
#        33966
#        44684
#        54297
#        64072
#        74425
#        83110
#        94458
#        104710
#
# Disc length: 1478 seconds
#
# Revision: 0
# Processed by: cddbd v1.5.2PL0 Copyright (c) Steve Scherf et al.
# Submitted via: ExactAudioCopy v0.95b4
#
DISCID=9a05c40b
DTITLE=Winter, Johnny - The Johnny Winter Story
DYEAR=1900
DGENRE=Blues
TTITLE0=Ease my heart
TTITLE1=That's what love does
TTITLE2=Crying in my heart
TTITLE3=The guy you left behind
TTITLE4=Shed so many tears
TTITLE5=Creepy
TTITLE6=Gangster of love
TTITLE7=Road runner
TTITLE8=Leave my woman (wife) alone
TTITLE9=I can't believe you want to leave
TTITLE10=Broke and lonely
EXTD=
EXTT0=
EXTT1=
EXTT2=
EXTT3=
EXTT4=
EXTT5=
EXTT6=
EXTT7=
EXTT8=
EXTT9=
EXTT10=
PLAYORDER=
